# xmcd
#
# Track frame offsets:
#	150
#	9923
#	21931
#	33682
#	46427
#	58722
#	72557
#	82734
#	92239
#	102637
#	112518
#	124142
#	138230
#	149431
#
# Disc length: 2184 seconds
#
# Revision: 1
# Processed by: cddbd v1.5.2PL0 Copyright (c) Steve Scherf et al.
# Submitted via: audiograbber 1.83.01
#
DISCID=be08860e
DTITLE=Various Artist - The Charlie Pride Show featuring Dave and Sugar
DYEAR=1900
DGENRE=Country
TTITLE0=Charley Pride - Someone Loves You Honey
TTITLE1=Charley Pride - My Eyes Can Only See As Far As You
TTITLE2=Charley Pride - She's Just An Old Love Turned Memory
TTITLE3=Charley Pride - Rhinestone Cowboy
TTITLE4=Dave and Sugar - A Whole Lotta Things To Sing About
TTITLE5=Dave and Sugar - I've Been So Wrong For So Long
TTITLE6=Dave and Sugar - Late Nite Country Lovin' Music
TTITLE7=Charley Pride - I Don't Fight The Feelings Of Love
TTITLE8=Charley Pride - The Happiness Of Having You
TTITLE9=Dave and Sugar - That's The Way Love Should Be
TTITLE10=Dave and Sugar - I'm Knee Deep In Love With You
TTITLE11=Charley Pride - This Is My Year For Mexico
TTITLE12=Charley Pride - Help Me Make It Though The Night
TTITLE13=Charley Pride - Whispering Hope
EXTD=
EXTT0=
EXTT1=
EXTT2=
EXTT3=
EXTT4=
EXTT5=
EXTT6=
EXTT7=
EXTT8=
EXTT9=
EXTT10=
EXTT11=
EXTT12=
EXTT13=
PLAYORDER=
